<?xml version="1.0" encoding="UTF-8"?><svg xmlns="http://www.w3.org/2000/svg" xmlns:xlink="http://www.w3.org/1999/xlink" height="155.3" preserveAspectRatio="xMidYMid meet" version="1.0" viewBox="-0.5 -0.0 447.8 155.3" width="447.8" zoomAndPan="magnify"><g id="change1_1"><path d="M369.0956,5.2476l72.3981,72.3981l-72.3981,72.3981l-72.3981-72.3981L369.0956,5.2476z" fill="#1A5F78"/></g><g id="change2_1"><path d="M271.9467,5.2483l72.3981,72.3981l-72.3981,72.3981l-72.3981-72.3981L271.9467,5.2483z" fill="#F47F5E"/></g><g id="change3_1"><path d="M174.7978,5.249l72.3981,72.3981l-72.3981,72.3981l-72.3981-72.3981L174.7978,5.249z" fill="#F8BFD8"/></g><g id="change4_1"><path d="M77.6488,5.2496l72.3981,72.3981l-72.3981,72.3981L5.2507,77.6477L77.6488,5.2496z" fill="#FFD25D"/></g><g id="change5_1"><path d="M445.2083,73.9363L372.8098,1.5374c-0.9844-0.9844-2.3193-1.5376-3.7119-1.5376 c-1.3926,0-2.7275,0.5532-3.7119,1.5376l-44.8631,44.8629L275.6604,1.5375c-0.9844-0.9844-2.3193-1.5376-3.7119-1.5376 c-1.3926,0-2.7275,0.5532-3.7119,1.5376l-44.8633,44.863l7.4245,7.4244l41.1506-41.1503l64.9736,64.9741l-64.9736,64.9741 l-41.1506-41.1503l20.1115-20.1114c0.9854-0.9849,1.5381-2.3198,1.5381-3.7124c0-1.3926-0.5527-2.7275-1.5381-3.7124 L178.5099,1.5374c-0.9844-0.9844-2.3193-1.5376-3.7119-1.5376c-1.3926,0-2.7275,0.5532-3.7119,1.5376l-44.8625,44.8627 l7.4246,7.4246l41.1498-41.1501l64.9746,64.9741l-64.9746,64.9741l-41.1498-41.1501l-1.3993,1.3992l21.511-21.5109 c0.9854-0.9849,1.5381-2.3198,1.5381-3.7124c0-1.3926-0.5527-2.7275-1.5381-3.7124L81.3605,1.5374 c-0.9844-0.9844-2.3193-1.5376-3.7119-1.5376c-1.3926,0-2.7275,0.5532-3.7119,1.5376L1.5383,73.9363 c-2.0508,2.0503-2.0508,5.3745,0,7.4248l72.3985,72.399c0.9844,0.9844,2.3193,1.5376,3.7119,1.5376 c1.3925,0,2.7275-0.5533,3.7119-1.5377l44.863-44.8628l44.8625,44.8629c0.9844,0.9844,2.3193,1.5376,3.7119,1.5376 c1.3925,0,2.7275-0.5533,3.7119-1.5376l44.8632-44.863l44.8633,44.863c0.9844,0.9844,2.3193,1.5376,3.7119,1.5376 c1.3925,0,2.7275-0.5533,3.7119-1.5376l72.3984-72.3989c2.0508-2.0503,2.0508-5.3745,0-7.4248l-20.1115-20.1116l41.1505-41.1502 l64.9736,64.9741l-64.9736,64.9741l-41.1505-41.1501l-7.4246,7.4246l44.8631,44.8627c0.9844,0.9844,2.3193,1.5376,3.7119,1.5376 c1.3925,0,2.7275-0.5533,3.7119-1.5377l72.3984-72.3989C447.259,79.3108,447.259,75.9866,445.2083,73.9363z M77.6486,142.6228 L12.675,77.6487l64.9737-64.9741l64.9745,64.9741L77.6486,142.6228z" fill="#343434"/></g></svg>